<svg height="512pt" viewBox="0 0 512 512" width="512pt" xmlns="http://www.w3.org/2000/svg"><path d="m318.691406 366.269531v25.289063c-19.070312 8.839844-40.292968 13.761718-62.679687 13.761718-22.390625 0-43.621094-4.921874-62.683594-13.75v-25.300781c0-26.769531 16.792969-49.628906 40.421875-58.597656-19.988281-8.640625-34.019531-28.550781-34.019531-51.683594 0-31.027343 25.25-56.269531 56.269531-56.269531 31.03125 0 56.28125 25.242188 56.28125 56.269531 0 23.121094-14.019531 43.03125-34.011719 51.671875 23.628907 8.980469 40.421875 31.839844 40.421875 58.609375zm0 0" fill="#4e5cc3"/><path d="m512 240.988281h-28.246094c-3.566406-55.320312-26.800781-106.839843-66.355468-146.394531-39.558594-39.558594-91.078126-62.789062-146.398438-66.355469v-28.238281h-30v28.238281c-55.320312 3.566407-106.84375 26.800781-146.398438 66.355469-39.554687 39.554688-62.789062 91.074219-66.355468 146.394531h-28.246094v30h28.246094c3.566406 55.324219 26.800781 106.84375 66.355468 146.398438 39.554688 39.554687 91.078126 62.789062 146.398438 66.355469v28.257812h30v-28.257812c55.320312-3.566407 106.839844-26.800782 146.398438-66.355469 39.554687-39.554688 62.789062-91.074219 66.355468-146.398438h28.246094zm-241 212.6875v-27.101562h-30v27.101562c-97.382812-7.320312-175.367188-85.304687-182.6875-182.6875h27.101562v-30h-27.101562c7.320312-97.382812 85.304688-175.363281 182.6875-182.683593v27.101562h30v-27.101562c97.382812 7.320312 175.367188 85.300781 182.6875 182.683593h-27.105469v30h27.105469c-7.320312 97.382813-85.304688 175.367188-182.6875 182.6875zm0 0" fill="#ed6b00"/><path d="m318.691406 366.269531v25.289063c-19.070312 8.839844-40.292968 13.761718-62.679687 13.761718h-.011719v-205.601562c31.03125 0 56.28125 25.242188 56.28125 56.269531 0 23.121094-14.019531 43.03125-34.011719 51.671875 21.121094 8.03125 36.78125 27.140625 39.859375 50.230469.371094 2.738281.5625 5.539063.5625 8.378906zm0 0" fill="#222aa5"/><path d="m483.75 240.988281c-3.558594-55.316406-26.800781-106.839843-66.351562-146.398437-39.558594-39.550782-91.078126-62.789063-146.398438-66.351563v-28.238281h-15v85.410156h15v-27.109375c97.378906 7.320313 175.371094 85.308594 182.691406 182.6875h-27.113281v30h27.113281c-7.320312 97.382813-85.3125 175.371094-182.691406 182.691407v-27.109376h-15v85.429688h15v-28.261719c55.320312-3.558593 106.839844-26.796875 146.398438-66.347656 39.550781-39.5625 62.792968-91.082031 66.351562-146.402344h28.25v-30zm0 0" fill="#e35100"/><g fill="#ed6b00"><path d="m256.011719 106.648438c-82.480469 0-149.339844 66.863281-149.339844 149.339843 0 60.089844 35.488281 111.890625 86.65625 135.582031 19.0625 8.828126 40.292969 13.75 62.683594 13.75 22.386719 0 43.609375-4.921874 62.679687-13.761718 51.167969-23.6875 86.636719-75.488282 86.636719-135.570313 0-82.476562-66.839844-149.339843-149.316406-149.339843zm100.058593 214.390624c-12.308593 18.890626-29.601562 33.859376-50.011718 43.3125-15.699219 7.277344-32.539063 10.96875-50.046875 10.96875-17.511719 0-34.363281-3.691406-50.082031-10.96875-20.390626-9.441406-37.679688-24.410156-49.988282-43.300781-12.613281-19.339843-19.269531-41.839843-19.269531-65.0625 0-31.867187 12.40625-61.839843 34.949219-84.378906 22.539062-22.539063 52.507812-34.960937 84.390625-34.960937 31.867187 0 61.839843 12.421874 84.378906 34.960937 22.53125 22.539063 34.9375 52.511719 34.9375 84.378906 0 23.222657-6.65625 45.722657-19.257813 65.050781zm0 0"/><path d="m256.011719 106.648438c-82.480469 0-149.339844 66.863281-149.339844 149.339843 0 60.089844 35.488281 111.890625 86.65625 135.582031 19.0625 8.828126 40.292969 13.75 62.683594 13.75 22.386719 0 43.609375-4.921874 62.679687-13.761718 51.167969-23.6875 86.636719-75.488282 86.636719-135.570313 0-82.476562-66.839844-149.339843-149.316406-149.339843zm100.058593 214.390624c-12.308593 18.890626-29.601562 33.859376-50.011718 43.3125-15.699219 7.277344-32.539063 10.96875-50.046875 10.96875-17.511719 0-34.363281-3.691406-50.082031-10.96875-20.390626-9.441406-37.679688-24.410156-49.988282-43.300781-12.613281-19.339843-19.269531-41.839843-19.269531-65.0625 0-31.867187 12.40625-61.839843 34.949219-84.378906 22.539062-22.539063 52.507812-34.960937 84.390625-34.960937 31.867187 0 61.839843 12.421874 84.378906 34.960937 22.53125 22.539063 34.9375 52.511719 34.9375 84.378906 0 23.222657-6.65625 45.722657-19.257813 65.050781zm0 0"/><path d="m256.011719 106.648438v30c31.867187 0 61.839843 12.421874 84.378906 34.960937 22.53125 22.539063 34.9375 52.511719 34.9375 84.378906 0 23.222657-6.65625 45.722657-19.257813 65.050781-12.308593 18.890626-29.601562 33.859376-50.011718 43.3125-15.699219 7.277344-32.539063 10.96875-50.046875 10.96875v30c22.386719 0 43.609375-4.921874 62.679687-13.761718 51.167969-23.6875 86.636719-75.488282 86.636719-135.570313 0-82.476562-66.839844-149.339843-149.316406-149.339843zm0 0"/><path d="m256.011719 106.648438v30c31.867187 0 61.839843 12.421874 84.378906 34.960937 22.53125 22.539063 34.9375 52.511719 34.9375 84.378906 0 23.222657-6.65625 45.722657-19.257813 65.050781-12.308593 18.890626-29.601562 33.859376-50.011718 43.3125-15.699219 7.277344-32.539063 10.96875-50.046875 10.96875v30c22.386719 0 43.609375-4.921874 62.679687-13.761718 51.167969-23.6875 86.636719-75.488282 86.636719-135.570313 0-82.476562-66.839844-149.339843-149.316406-149.339843zm0 0"/></g><path d="m256.011719 106.648438h-.011719v30h.011719c31.867187 0 61.839843 12.421874 84.378906 34.960937 22.53125 22.539063 34.9375 52.511719 34.9375 84.378906 0 23.222657-6.65625 45.722657-19.257813 65.050781-9.800781 15.039063-22.761718 27.589844-37.941406 36.851563-3.878906 2.378906-7.910156 4.53125-12.070312 6.460937-15.699219 7.277344-32.539063 10.96875-50.046875 10.96875h-.011719v30h.011719c22.386719 0 43.609375-4.921874 62.679687-13.761718 51.167969-23.6875 86.636719-75.488282 86.636719-135.570313 0-82.476562-66.839844-149.339843-149.316406-149.339843zm0 0" fill="#e35100"/><path d="m256.011719 106.648438h-.011719v30h.011719c31.867187 0 61.839843 12.421874 84.378906 34.960937 22.53125 22.539063 34.9375 52.511719 34.9375 84.378906 0 23.222657-6.65625 45.722657-19.257813 65.050781-9.800781 15.039063-22.761718 27.589844-37.941406 36.851563-3.878906 2.378906-7.910156 4.53125-12.070312 6.460937-15.699219 7.277344-32.539063 10.96875-50.046875 10.96875h-.011719v30h.011719c22.386719 0 43.609375-4.921874 62.679687-13.761718 51.167969-23.6875 86.636719-75.488282 86.636719-135.570313 0-82.476562-66.839844-149.339843-149.316406-149.339843zm0 0" fill="#e35100"/></svg>