<svg height="512pt" viewBox="0 -53 512 512" width="512pt" xmlns="http://www.w3.org/2000/svg"><path d="m447.257812 406.128906h-382.515624c-35.757813 0-64.742188-28.988281-64.742188-64.742187v-303.570313c0-20.886718 16.929688-37.816406 37.816406-37.816406h436.367188c20.886718 0 37.816406 16.929688 37.816406 37.816406v303.570313c0 35.753906-28.984375 64.742187-64.742188 64.742187zm0 0" fill="#5972a5"/><path d="m109.972656 341.386719v-303.570313c0-20.886718 16.929688-37.816406 37.816406-37.816406h-109.972656c-20.886718 0-37.816406 16.929688-37.816406 37.816406v303.570313c0 35.757812 28.984375 64.742187 64.742188 64.742187h109.972656c-35.753906 0-64.742188-28.988281-64.742188-64.742187zm0 0" fill="#3b5a9b"/><path d="m474.183594 0h-436.367188c-20.886718 0-37.816406 16.929688-37.816406 37.816406v38.425782h512v-38.425782c0-20.886718-16.929688-37.816406-37.816406-37.816406zm0 0" fill="#a5b1bd"/><path d="m147.789062 0h-109.972656c-20.886718 0-37.816406 16.929688-37.816406 37.816406v38.425782h109.972656v-38.425782c0-20.886718 16.929688-37.816406 37.816406-37.816406zm0 0" fill="#8697a6"/><path d="m350.570312 406.128906h-173.339843v-72.421875c0-30.273437 24.539062-54.8125 54.816406-54.8125h63.707031c30.273438 0 54.816406 24.539063 54.816406 54.8125zm0 0" fill="#ffaa75"/><path d="m206.535156 218.273438c0 17.519531-14.203125 31.71875-31.722656 31.71875s-31.722656-14.199219-31.722656-31.71875c0-17.523438 14.203125-31.722657 31.722656-31.722657s31.722656 14.199219 31.722656 31.722657zm0 0" fill="#ffcbbe"/><path d="m384.707031 218.273438c0 17.519531-14.199219 31.71875-31.71875 31.71875-17.523437 0-31.722656-14.199219-31.722656-31.71875 0-17.523438 14.199219-31.722657 31.722656-31.722657 17.519531 0 31.71875 14.199219 31.71875 31.722657zm0 0" fill="#ffcbbe"/><path d="m263.898438 308.175781c-47.867188 0-86.667969-38.804687-86.667969-86.667969v-13.355468c0-47.867188 38.800781-86.671875 86.667969-86.671875 47.867187 0 86.671874 38.804687 86.671874 86.671875v13.355468c0 47.863282-38.804687 86.667969-86.671874 86.667969zm0 0" fill="#ffddcf"/><g fill="#454545"><path d="m312.738281 237.832031c-4.269531 0-7.726562-3.460937-7.726562-7.726562v-12.828125c0-4.265625 3.457031-7.726563 7.726562-7.726563 4.265625 0 7.726563 3.460938 7.726563 7.726563v12.828125c0 4.265625-3.460938 7.726562-7.726563 7.726562zm0 0"/><path d="m215.0625 237.832031c-4.269531 0-7.726562-3.460937-7.726562-7.726562v-12.828125c0-4.265625 3.457031-7.726563 7.726562-7.726563 4.265625 0 7.726562 3.460938 7.726562 7.726563v12.828125c0 4.265625-3.460937 7.726562-7.726562 7.726562zm0 0"/><path d="m269.175781 222.386719c-1.730469 2.539062-4.253906 2.847656-5.277343 2.847656-1.023438 0-3.589844-.277344-5.277344-2.847656-2.34375-3.566407-7.132813-4.558594-10.699219-2.214844-3.566406 2.339844-4.558594 7.132813-2.214844 10.699219 4.035157 6.144531 10.839844 9.816406 18.191407 9.816406 7.355468 0 14.15625-3.671875 18.195312-9.816406 2.339844-3.566406 1.347656-8.359375-2.21875-10.699219-1.304688-.859375-7.089844-3.085937-10.699219 2.214844zm0 0"/></g><path d="m272.945312 147.441406s19.59375 44.566406 83.769532 46.648438c7.152344.230468 11.6875-7.597656 7.871094-13.648438-3.390626-5.382812-6.789063-11.78125-8.507813-17.957031-4.15625-14.921875-21.007813-29.472656-43.339844-25.9375zm0 0" fill="#dd6642"/><path d="m312.738281 136.546875s-47.53125 64.410156-147.484375 56.398437c-8.902344-.714843-13.671875-10.714843-8.757812-18.175781 3.601562-5.464843 7.242187-12.714843 10.039062-22.21875 8.3125-28.265625 45.917969-55.699219 89.464844-50.710937 43.546875 4.988281 56.738281 34.707031 56.738281 34.707031zm0 0" fill="#e7896e"/><path d="m431.675781 364.632812h-351.351562c-9.164063 0-16.589844-7.429687-16.589844-16.589843 0-9.164063 7.425781-16.589844 16.589844-16.589844h351.351562c9.164063 0 16.589844 7.425781 16.589844 16.589844 0 9.160156-7.425781 16.589843-16.589844 16.589843zm0 0" fill="#546370"/><path d="m177.230469 331.453125h-96.90625c-9.164063 0-16.589844 7.425781-16.589844 16.589844 0 9.160156 7.425781 16.589843 16.589844 16.589843h96.90625zm0 0" fill="#ff8a98"/><path d="m201.46875 348.042969c0 13.386719-10.851562 24.238281-24.238281 24.238281s-24.242188-10.851562-24.242188-24.238281 10.855469-24.238281 24.242188-24.238281 24.238281 10.851562 24.238281 24.238281zm0 0" fill="#a4e7ff"/><path d="m72.953125 38.121094c0 8.535156-6.921875 15.453125-15.453125 15.453125-8.535156 0-15.453125-6.917969-15.453125-15.453125s6.917969-15.453125 15.453125-15.453125c8.53125 0 15.453125 6.917969 15.453125 15.453125zm0 0" fill="#fd5c6f"/><path d="m135.933594 38.121094c0 8.535156-6.917969 15.453125-15.453125 15.453125-8.53125 0-15.453125-6.917969-15.453125-15.453125s6.921875-15.453125 15.453125-15.453125c8.535156 0 15.453125 6.917969 15.453125 15.453125zm0 0" fill="#f9ee80"/><path d="m199.933594 38.121094c0 8.535156-6.917969 15.453125-15.453125 15.453125-8.53125 0-15.453125-6.917969-15.453125-15.453125s6.921875-15.453125 15.453125-15.453125c8.535156 0 15.453125 6.917969 15.453125 15.453125zm0 0" fill="#60daa8"/></svg>