<?xml version="1.0" standalone="no"?>
<!DOCTYPE svg PUBLIC "-//W3C//DTD SVG 20010904//EN"
 "http://www.w3.org/TR/2001/REC-SVG-20010904/DTD/svg10.dtd">
<svg version="1.0" xmlns="http://www.w3.org/2000/svg"
 width="260.000000pt" height="260.000000pt" viewBox="0 0 260.000000 260.000000"
 preserveAspectRatio="xMidYMid meet">
<metadata>
Created by potrace 1.11, written by Peter Selinger 2001-2013
</metadata>
<g transform="translate(0.000000,260.000000) scale(0.100000,-0.100000)"
fill="#000000" stroke="none">
<path d="M51 1323 l0 -675 317 4 c298 4 321 6 387 27 183 61 296 153 374 307
53 106 74 204 73 349 -2 322 -179 563 -472 641 -54 14 -117 18 -372 20 l-307
2 0 -675z m556 422 c107 -13 222 -95 272 -194 76 -148 60 -387 -32 -506 -89
-114 -193 -152 -402 -149 -66 1 -122 2 -125 3 -3 0 -5 191 -5 424 l0 422 70 5
c78 6 145 4 222 -5z"/>
<path d="M1436 1992 c-2 -4 -4 -307 -4 -674 l0 -668 131 0 132 0 0 268 c-1
147 0 272 2 278 3 8 93 11 293 11 l290 1 1 -21 c0 -12 1 -138 1 -280 l0 -257
134 0 134 0 -2 673 -3 672 -132 1 -131 1 0 -262 c1 -144 -2 -266 -5 -271 -7
-12 -562 -12 -574 -1 -4 5 -8 126 -8 270 l0 262 -127 2 c-70 1 -130 -1 -132
-5z"/>
</g>
</svg>
